<svg width="320" height="5" viewBox="0 0 320 5" fill="none" xmlns="http://www.w3.org/2000/svg">
<path d="M9.07208 4.35893C11.5934 4.37207 14.7149 4.28777 17.2095 4.33964C17.2444 4.34037 17.2794 4.3411 17.3144 4.34182C18.3339 4.36303 19.3728 4.39364 20.6296 4.43065C20.7897 4.43537 20.9538 4.4403 21.1213 4.44521C22.6113 4.48893 24.4415 4.54133 26.9355 4.59957C35.31 4.79515 41.9129 4.66518 43.9668 4.62469C48.086 4.5435 52.4801 4.54178 58.4759 4.5395C59.0242 4.5393 59.5861 4.53942 60.1622 4.53914C60.629 4.53891 61.0154 4.60466 61.0261 4.68622C61.0365 4.76781 60.667 4.83416 60.2 4.83439C59.6359 4.83466 59.0861 4.83491 58.5503 4.83511C58.5479 4.83511 58.5455 4.83511 58.543 4.83511C52.5096 4.83746 48.2109 4.8392 44.1888 4.91848C42.0902 4.95985 35.3251 5.09268 26.7439 4.89227C24.2234 4.8334 22.3726 4.7808 20.8737 4.73682C20.7095 4.73201 20.5496 4.7272 20.3941 4.72262C20.3905 4.7225 20.3868 4.72238 20.3831 4.72226C19.118 4.68501 18.1229 4.65554 17.1472 4.63525C17.1265 4.63489 17.1057 4.63452 17.085 4.63416C14.5624 4.5817 11.5004 4.66692 9.055 4.65418C8.58816 4.65171 8.21318 4.58354 8.21795 4.50201C8.22298 4.42052 8.60549 4.35656 9.07208 4.35893ZM179.327 3.38947C181.762 3.28131 185 3.29325 187.86 3.34141C190.74 3.38991 193.346 3.47715 194.572 3.53072C195.771 3.58308 197.103 3.60002 198.693 3.61044C199.057 3.61284 199.435 3.61487 199.826 3.617C201.118 3.62402 202.555 3.63189 204.132 3.65522C209.927 3.74093 213.705 3.74455 216.402 3.73677C216.957 3.73517 217.474 3.73297 217.957 3.73095C217.958 3.73095 217.959 3.73095 217.959 3.73095C219.783 3.7233 221.144 3.7177 222.396 3.75133C224.624 3.81121 226.443 3.86427 228.638 3.96794C231.666 4.1109 235.979 4.09393 238.785 3.99561C238.939 3.99021 239.097 3.98448 239.256 3.97886C241.291 3.90715 243.796 3.81892 247.552 3.75315C250.673 3.69851 253.393 3.70281 255.801 3.7182C256.491 3.72262 257.149 3.7281 257.781 3.73313C259.377 3.74583 260.804 3.75726 262.149 3.7506C270.491 3.70933 275.301 3.76273 278.324 3.84307C280.649 3.90487 281.948 3.9844 282.885 4.04185C283.168 4.05921 283.418 4.07478 283.654 4.08699C285.754 4.19583 287.681 4.24476 290 4.3036C290.515 4.31666 291.05 4.3303 291.609 4.3451C293.48 4.3946 294.875 4.38604 295.968 4.36512C296.446 4.35597 296.867 4.34469 297.264 4.33381C297.271 4.33357 297.278 4.33333 297.286 4.33309C297.341 4.33157 297.396 4.3302 297.45 4.32872C297.492 4.3276 297.533 4.32617 297.574 4.32508C297.59 4.3236 297.604 4.32265 297.615 4.3218C297.624 4.32113 297.63 4.32066 297.635 4.32034C297.635 4.32022 297.636 4.3201 297.637 4.31998C297.715 4.31431 297.782 4.31208 297.796 4.31161C297.82 4.31078 297.841 4.31041 297.852 4.31015C297.909 4.30879 297.983 4.30801 298.033 4.3076C298.159 4.30655 298.379 4.30531 298.718 4.30396C299.014 4.2997 299.298 4.29245 299.653 4.28321C299.675 4.2826 299.698 4.282 299.72 4.28139C300.066 4.27237 300.472 4.26204 300.98 4.2519C301.443 4.24268 301.869 4.30083 301.931 4.38187C301.993 4.46292 301.668 4.53608 301.205 4.54533C300.726 4.55488 300.346 4.5647 299.999 4.57372C299.977 4.57433 299.956 4.57494 299.934 4.57554C299.572 4.58494 299.23 4.59373 298.861 4.59884C298.738 4.60055 298.61 4.60188 298.491 4.60285C298.277 4.6065 298.034 4.61277 297.742 4.62069C297.684 4.62228 297.623 4.62373 297.561 4.62542C297.165 4.63629 296.704 4.64896 296.184 4.65891C294.966 4.68221 293.424 4.69095 291.387 4.63707C290.853 4.62294 290.336 4.60983 289.83 4.59702C287.502 4.53806 285.431 4.48575 283.202 4.37022C282.897 4.35437 282.603 4.33626 282.29 4.31707C281.36 4.2602 280.25 4.19217 278.101 4.13504C275.221 4.05851 270.525 4.00481 262.231 4.04585C260.819 4.05284 259.296 4.04056 257.674 4.02765C257.055 4.02272 256.42 4.01796 255.772 4.01381C253.402 3.99866 250.767 3.99454 247.754 4.04731C244.081 4.11161 241.645 4.19726 239.619 4.26865C239.549 4.2712 239.479 4.27375 239.409 4.27629C239.322 4.27935 239.236 4.2824 239.15 4.2854C236.16 4.39019 231.571 4.41095 228.226 4.253C226.127 4.15388 224.386 4.10285 222.17 4.0433C221.081 4.01402 219.917 4.01886 218.129 4.02619C217.627 4.02825 217.076 4.03025 216.464 4.03202C213.717 4.03994 209.882 4.0364 204.023 3.94974C202.495 3.92715 201.12 3.9196 199.836 3.91261C199.437 3.91044 199.046 3.90821 198.662 3.90569C197.065 3.89521 195.579 3.87812 194.193 3.81759C193.054 3.76784 190.531 3.68274 187.731 3.63556C184.91 3.58805 181.915 3.58092 179.775 3.67597C179.553 3.68586 179.328 3.69562 179.104 3.70546C177.174 3.79021 175.205 3.8766 173.621 4.02037C166.518 4.92377 153.653 4.57975 145.166 4.52531C145.055 4.52458 144.943 4.52385 144.832 4.52312C135.036 4.46034 127.917 4.46832 125.491 4.47106C125.377 4.47119 125.274 4.47133 125.182 4.47143C125.099 4.47151 125.024 4.47174 124.959 4.47179C123.97 4.47255 123.095 4.48303 122.179 4.494C122.129 4.4946 122.079 4.49521 122.029 4.49582C121.061 4.50737 120.044 4.51865 118.843 4.51766C114.376 4.51398 110.735 4.52743 107.584 4.54169C107.001 4.54433 106.434 4.54672 105.881 4.54933C105.879 4.54933 105.878 4.54933 105.876 4.54933C103.45 4.56079 101.297 4.5711 99.2543 4.57118C95.5292 4.57132 93.013 4.59 91.0559 4.61013C90.4421 4.61644 89.8766 4.62289 89.3428 4.62906C88.1887 4.64241 87.1806 4.6541 86.141 4.65818C84.1857 4.66586 82.3862 4.68615 80.6136 4.70588C80.4556 4.70763 80.2979 4.70923 80.1402 4.71097C78.2187 4.73224 76.3158 4.75195 74.3041 4.75247C73.8372 4.75259 73.45 4.68626 73.4402 4.60467C73.4309 4.52315 73.8021 4.45699 74.2687 4.45686C76.2228 4.45636 78.0789 4.43735 79.9999 4.41609C80.1583 4.41434 80.3175 4.4124 80.477 4.41063C82.2451 4.39095 84.0776 4.37076 86.069 4.36294C87.0714 4.35901 88.0235 4.348 89.1549 4.33491C89.6947 4.32866 90.2761 4.3219 90.9229 4.31525C92.9098 4.29481 95.4591 4.27571 99.2201 4.27557C101.238 4.27549 103.363 4.26553 105.788 4.25409C106.345 4.25146 106.917 4.24875 107.508 4.24608C110.666 4.23178 114.326 4.21835 118.817 4.22205C119.952 4.22299 120.916 4.21244 121.88 4.20094C121.934 4.20033 121.988 4.19972 122.042 4.19912C122.951 4.18824 123.874 4.17698 124.918 4.17618C125.058 4.17607 125.236 4.17606 125.45 4.17582C127.881 4.17307 135.028 4.16486 144.86 4.22788C144.89 4.22812 144.921 4.22836 144.951 4.2286C151.539 4.27083 155.255 4.29467 158.054 4.22169C160.262 4.16409 161.913 4.14936 163.267 4.14232C163.526 4.14098 163.77 4.1397 164.003 4.13868C165.01 4.13428 165.806 4.13076 166.601 4.11029C169.007 4.04834 170.732 3.94688 172.819 3.75752C174.588 3.59702 176.756 3.50206 178.655 3.41895C178.658 3.41883 178.661 3.41871 178.664 3.41859C178.889 3.40873 179.111 3.39909 179.327 3.38947ZM307.682 4.05568C308.148 4.05812 308.523 4.12601 308.519 4.20749C308.514 4.28903 308.132 4.35333 307.665 4.35093C306.552 4.3451 305.44 4.33928 304.327 4.33345C303.861 4.331 303.486 4.26311 303.49 4.18164C303.495 4.10011 303.878 4.03582 304.344 4.03821C305.457 4.04403 306.569 4.04985 307.682 4.05568ZM177.38 1.91979C177.835 1.90326 178.289 1.95493 178.393 2.03483C178.496 2.11467 178.21 2.19269 177.755 2.20921C177.514 2.21795 177.118 2.23375 176.586 2.25508C172.751 2.4087 161.8 2.8474 150.192 2.97554C149.214 2.98633 148.338 2.99699 147.504 3.00721C143.934 3.05092 141.069 3.26074 134.242 3.25222C105.535 3.21635 76.8506 2.84136 48.1898 3.09859C39.912 3.17288 31.6603 3.184 23.3762 3.17904C16.4715 3.17491 3.81507 3.02345 0.837088 3.00794C0.370065 3.00551 -0.0047264 2.93732 4.50578e-05 2.85577C0.00503422 2.77425 0.387361 2.71028 0.854171 2.71269C3.81112 2.72809 16.4255 2.87933 23.3042 2.88343C31.5724 2.88837 39.8073 2.87749 48.069 2.80334C76.7631 2.54581 105.54 2.56283 134.28 2.59875C141.04 2.60719 143.792 2.75622 147.349 2.71269C148.185 2.70245 149.066 2.69155 150.053 2.68066C161.499 2.55432 172.282 2.12275 176.163 1.96748C176.713 1.9455 177.125 1.92903 177.38 1.91979ZM199.095 2.0432C204.308 2.02086 211.719 2.06064 218.195 2.09563C221.353 2.11269 224.289 2.12883 226.64 2.13567C230.282 2.14627 232.574 2.21694 234.848 2.28712C234.872 2.28785 234.897 2.28857 234.921 2.2893C237.193 2.35942 239.467 2.42843 243.166 2.43929C246.895 2.45024 252.055 2.4022 257.26 2.35374C257.264 2.35374 257.268 2.35374 257.272 2.35374C262.45 2.30554 267.701 2.10717 271.496 2.11856C284.721 2.15825 292.875 2.36118 296.998 2.52047C304.21 2.79912 312.39 2.48658 319.758 2.83902C320.57 2.91707 319.2 3.14177 317.702 3.07711C317.648 3.07529 317.594 3.07347 317.539 3.07165C317.024 3.05471 316.573 3.04095 315.939 3.02978C315.019 3.02065 314.334 3.02004 313.709 3.01959C312.07 3.0184 300.69 2.96474 296.663 2.80917C292.75 2.65802 284.767 2.81197 271.458 2.77203C267.734 2.76086 262.587 2.60053 257.382 2.64898C257.368 2.64911 257.354 2.64923 257.34 2.64935C252.173 2.69745 246.962 2.74603 243.171 2.7349C239.338 2.72365 236.961 2.65122 234.659 2.58018C234.636 2.57945 234.614 2.57872 234.592 2.57799C232.339 2.50847 230.152 2.44112 226.645 2.43092C224.242 2.42393 221.272 2.40806 218.094 2.39087C211.645 2.356 204.338 2.3163 199.17 2.33845C198.703 2.34041 198.308 2.27583 198.288 2.19428C198.267 2.11278 198.629 2.04523 199.095 2.0432ZM199.203 0.202923C213.851 -0.124477 228.58 -0.0325708 243.024 0.313231C246.794 0.324303 252.055 0.347238 257.309 0.370387C257.368 0.37075 257.428 0.371115 257.487 0.371479C262.684 0.394378 267.858 0.417121 271.573 0.428271C284.797 0.467959 292.982 0.521278 297.105 0.680558C300.95 0.829093 302.017 0.829524 303.599 0.830548C303.642 0.830669 303.685 0.830791 303.728 0.830912C303.731 0.830669 303.734 0.830426 303.737 0.830184C303.791 0.826384 303.837 0.824212 303.86 0.823267C303.908 0.821342 303.947 0.820627 303.961 0.820354C303.995 0.819723 304.023 0.81968 304.033 0.819626C304.074 0.819413 304.121 0.819468 304.152 0.819626C304.433 0.821093 305.316 0.830033 306.015 0.842197C306.731 0.854666 307.242 0.870726 307.78 0.888432C307.835 0.890252 307.89 0.892072 307.944 0.893893C308.429 0.909934 308.958 0.927377 309.718 0.946316C310.182 0.95788 310.511 1.03266 310.454 1.11342C310.397 1.19411 309.975 1.25015 309.512 1.23865C308.712 1.21873 308.15 1.20016 307.662 1.18404C307.608 1.18222 307.554 1.1804 307.5 1.17858C306.984 1.16163 306.533 1.14788 305.898 1.13671C304.978 1.12759 304.294 1.12697 303.67 1.12652C302.032 1.12534 300.798 1.12445 296.772 0.968887C292.859 0.817708 284.887 0.763462 271.578 0.723516C267.856 0.712347 262.676 0.689605 257.483 0.666725C257.423 0.666482 257.361 0.666239 257.3 0.665997C252.044 0.642834 246.791 0.619523 243.029 0.608476C228.369 0.565423 214.011 0.713298 199.279 0.498168C196.568 0.509788 194.09 0.514379 191.794 0.518556C185.038 0.530848 179.853 0.54048 174.91 0.719876C173.827 0.759207 170.986 0.792601 166.882 0.834188C165.679 0.846375 164.359 0.859155 162.933 0.873142C159.437 0.907428 155.295 0.947959 150.629 0.999467C149.651 1.01026 148.775 1.02092 147.941 1.03114C144.371 1.07484 141.554 1.10957 134.726 1.10104C126.326 1.09054 112.251 1.0172 104.723 0.960878C100.953 0.93267 98.8248 0.90653 97.3191 0.884791C96.8999 0.878738 96.5312 0.872875 96.1929 0.867681C95.3091 0.854112 94.6228 0.843713 93.7232 0.836737C87.2459 0.786515 82.7109 0.821115 75.2814 0.893165C74.8159 0.897656 74.41 0.835166 74.3748 0.753733C74.3399 0.672287 74.689 0.602473 75.1545 0.597919C82.595 0.525763 87.1991 0.490585 93.7647 0.541491C94.7039 0.548773 95.4387 0.560082 96.3381 0.573891C96.6715 0.579011 97.0277 0.584533 97.4253 0.590274C98.9059 0.611652 101.012 0.637572 104.762 0.665632C112.276 0.721852 126.331 0.794964 134.705 0.805428C141.466 0.813874 144.229 0.780158 147.786 0.736622C148.622 0.726387 149.502 0.715474 150.488 0.704586C155.161 0.653006 159.314 0.612201 162.812 0.577896C164.236 0.563928 165.553 0.551081 166.751 0.538942C170.938 0.496517 173.607 0.46415 174.536 0.430455C179.652 0.244781 185.062 0.234875 191.881 0.222582C194.151 0.218488 196.579 0.214169 199.203 0.202923ZM48.5058 0.827271C48.9716 0.823108 49.3757 0.885954 49.4088 0.967431C49.4416 1.04889 49.0912 1.11834 48.6254 1.12252C46.1651 1.1446 44.3965 1.16282 43.0138 1.17712C40.4547 1.20361 39.2179 1.21652 37.3656 1.21426C32.5839 1.20841 27.9669 1.20546 23.8131 1.20297C16.9085 1.19884 11.2812 1.19555 8.30337 1.18004C7.83642 1.17759 7.46155 1.10941 7.46632 1.02786C7.47153 0.946393 7.85386 0.882396 8.32045 0.884791C11.2774 0.900191 16.8623 0.903619 23.7411 0.907727C27.8998 0.91021 32.5319 0.912762 37.3436 0.918648C39.1401 0.920846 40.3078 0.908897 42.81 0.882971C44.1914 0.868659 45.9799 0.849942 48.5058 0.827271Z" fill="#154567"/>
</svg>
